<?xml version="1.0" standalone="no"?>
<!DOCTYPE svg PUBLIC "-//W3C//DTD SVG 20010904//EN"
 "http://www.w3.org/TR/2001/REC-SVG-20010904/DTD/svg10.dtd">
<svg version="1.0" xmlns="http://www.w3.org/2000/svg"
 width="48.000000pt" height="48.000000pt" viewBox="0 0 48.000000 48.000000"
 preserveAspectRatio="xMidYMid meet">

<g transform="translate(0.000000,48.000000) scale(0.100000,-0.100000)"
fill="#000000" stroke="none">
<path d="M268 413 c7 -3 16 -2 19 1 4 3 -2 6 -13 5 -11 0 -14 -3 -6 -6z"/>
<path d="M230 400 c-9 -6 -10 -10 -3 -10 6 0 15 5 18 10 8 12 4 12 -15 0z"/>
<path d="M380 385 c13 -14 26 -25 28 -25 3 0 -5 11 -18 25 -13 14 -26 25 -28
25 -3 0 5 -11 18 -25z"/>
<path d="M237 376 c-19 -13 -37 -22 -40 -20 -2 3 -10 -4 -18 -13 -13 -16 -12
-17 4 -4 21 16 21 13 3 -30 -29 -69 12 -134 84 -134 22 0 45 6 52 13 9 9 5 10
-20 2 -39 -11 -88 4 -102 30 -26 49 0 129 50 155 105 54 182 -54 108 -151
l-22 -29 22 19 c12 11 22 16 22 11 0 -4 7 -2 15 5 8 7 15 17 15 23 0 6 -7 2
-16 -9 -15 -19 -16 -19 -8 1 4 11 9 37 12 57 3 32 -1 42 -26 68 -38 38 -85 40
-135 6z"/>
<path d="M264 364 c-33 -16 -64 -61 -64 -92 0 -32 38 -72 69 -72 53 0 100 47
101 101 0 59 -52 90 -106 63z m34 -44 c-1 -25 -5 -30 -25 -30 -32 0 -33 47 0
53 12 2 23 5 24 6 1 0 1 -12 1 -29z m52 -10 c0 -13 -7 -20 -20 -20 -18 0 -19
3 -10 20 6 11 15 20 20 20 6 0 10 -9 10 -20z"/>
<path d="M413 310 c0 -25 2 -35 4 -22 2 12 2 32 0 45 -2 12 -4 2 -4 -23z"/>
<path d="M152 270 c0 -14 2 -19 5 -12 2 6 2 18 0 25 -3 6 -5 1 -5 -13z"/>
<path d="M161 214 c0 -11 3 -14 6 -6 3 7 2 16 -1 19 -3 4 -6 -2 -5 -13z"/>
<path d="M341 184 c-19 -13 -29 -24 -23 -24 6 0 24 11 39 25 35 31 28 31 -16
-1z"/>
<path d="M113 159 c-24 -17 -43 -32 -43 -35 0 -3 20 9 45 26 25 17 45 33 45
35 0 7 -2 6 -47 -26z"/>
<path d="M155 164 c-16 -14 -40 -33 -52 -44 -29 -23 -31 -60 -4 -60 18 0 71
52 71 70 0 5 7 16 16 25 28 28 1 36 -31 9z"/>
<path d="M201 151 c-8 -5 5 -7 35 -4 68 6 77 11 24 12 -25 0 -51 -3 -59 -8z"/>
<path d="M120 50 c-9 -6 -10 -10 -3 -10 6 0 15 5 18 10 8 12 4 12 -15 0z"/>
</g>
</svg>
